<svg xmlns="http://www.w3.org/2000/svg" viewBox="0 0 470 88"><title>Artboard 11 copy</title><path d="M22.21,31.83V54.38H19.48V31.83Z" style="fill:#494949"/><path d="M30.08,34a1.87,1.87,0,0,1-.16.75,2.17,2.17,0,0,1-.43.61,2,2,0,0,1-1.39.57,1.85,1.85,0,0,1-.74-.15,2,2,0,0,1-.61-.42,2.11,2.11,0,0,1-.41-.61,1.86,1.86,0,0,1-.15-.75,1.93,1.93,0,0,1,.15-.75,2.08,2.08,0,0,1,.41-.63,2,2,0,0,1,.61-.42A1.86,1.86,0,0,1,28.1,32a2,2,0,0,1,.76.16,1.93,1.93,0,0,1,.63.42,2.13,2.13,0,0,1,.43.63A1.94,1.94,0,0,1,30.08,34Zm-.58,4.87V54.38H26.77V38.87Z" style="fill:#494949"/><path d="M43,41.43a.61.61,0,0,1-.57.34,1.09,1.09,0,0,1-.52-.17l-.71-.38a7,7,0,0,0-1-.38,4.71,4.71,0,0,0-1.38-.18,4,4,0,0,0-1.24.18,3.08,3.08,0,0,0-.94.48A2.23,2.23,0,0,0,36,42a1.9,1.9,0,0,0-.21.88,1.49,1.49,0,0,0,.35,1,3.16,3.16,0,0,0,.91.69,8.53,8.53,0,0,0,1.28.51l1.48.48c.51.16,1,.35,1.48.55a5.51,5.51,0,0,1,1.29.77A3.6,3.6,0,0,1,43.53,48a3.39,3.39,0,0,1,.34,1.59,5.19,5.19,0,0,1-.38,2,4.41,4.41,0,0,1-1.14,1.57,5.29,5.29,0,0,1-1.83,1.05,7.43,7.43,0,0,1-2.51.39,7.86,7.86,0,0,1-2.94-.53,7.41,7.41,0,0,1-2.24-1.36l.65-1a.84.84,0,0,1,.29-.3.71.71,0,0,1,.43-.11,1.06,1.06,0,0,1,.58.21c.2.15.45.3.74.48a5.88,5.88,0,0,0,1.06.47,5,5,0,0,0,1.56.22,4.21,4.21,0,0,0,1.4-.21,2.79,2.79,0,0,0,1-.56,2,2,0,0,0,.59-.81,2.48,2.48,0,0,0,.19-1A1.61,1.61,0,0,0,41,49.05a2.77,2.77,0,0,0-.91-.72,6.77,6.77,0,0,0-1.3-.52l-1.48-.47a15.7,15.7,0,0,1-1.49-.56A5.25,5.25,0,0,1,34.5,46a3.62,3.62,0,0,1-.91-1.17,3.77,3.77,0,0,1-.34-1.69,4.23,4.23,0,0,1,.36-1.71A4.37,4.37,0,0,1,34.68,40a5.23,5.23,0,0,1,1.74-1,6.76,6.76,0,0,1,2.34-.37,7.39,7.39,0,0,1,2.74.48,6.4,6.4,0,0,1,2.11,1.32Z" style="fill:#494949"/><path d="M52,54.63a3.75,3.75,0,0,1-2.82-1,4.08,4.08,0,0,1-1-3v-9.5H46.3a.54.54,0,0,1-.58-.59V39.47l2.54-.32.63-4.79A.65.65,0,0,1,49.1,34a.59.59,0,0,1,.42-.14H50.9v5.34h4.48v2H50.9v9.31a2,2,0,0,0,.47,1.46,1.7,1.7,0,0,0,1.23.47,2.35,2.35,0,0,0,.74-.11,2.72,2.72,0,0,0,.54-.26,3,3,0,0,0,.39-.25.48.48,0,0,1,.29-.11.45.45,0,0,1,.38.26l.8,1.3a5.09,5.09,0,0,1-1.7,1A5.83,5.83,0,0,1,52,54.63Z" style="fill:#494949"/><path d="M66.18,40.46H79.34v2.07H66.18Zm0,5.13H79.34v2.07H66.18Z" style="fill:#494949"/><path d="M94.56,32.7V57h2.59a.72.72,0,0,1,.75.73v1.08H92.26V30.91H97.9V32a.7.7,0,0,1-.21.52.77.77,0,0,1-.54.2Z" style="fill:#494949"/><path d="M254.36,58.81h-5.64V57.73a.72.72,0,0,1,.75-.73h2.59V32.7h-2.59a.77.77,0,0,1-.54-.2.7.7,0,0,1-.21-.52V30.91h5.64Z" style="fill:#494949"/><rect x="103.86" y="30.69" width="28.13" height="27.91" rx="4.73" style="fill:#ffe249;stroke:#ffe249;stroke-miterlimit:10;stroke-width:2px"/><rect x="140.86" y="30.69" width="28.13" height="27.91" rx="4.73" style="fill:#ffe249;stroke:#ffe249;stroke-miterlimit:10;stroke-width:2px"/><rect x="177.86" y="30.69" width="28.13" height="27.91" rx="4.73" style="fill:#5187e5"/><rect x="214.86" y="30.69" width="28.13" height="27.91" rx="4.73" style="fill:#ffe249;stroke:#ffe249;stroke-miterlimit:10;stroke-width:2px"/><path d="M120.87,17.88a7.12,7.12,0,0,1-.26,2.08,4.41,4.41,0,0,1-.7,1.46,2.84,2.84,0,0,1-1.07.86,3,3,0,0,1-1.31.28,3.05,3.05,0,0,1-1.31-.28,2.85,2.85,0,0,1-1-.86,4.23,4.23,0,0,1-.71-1.46,7.5,7.5,0,0,1-.25-2.08,7.58,7.58,0,0,1,.25-2.09,4.38,4.38,0,0,1,.71-1.47,3,3,0,0,1,1-.86,3.05,3.05,0,0,1,1.31-.28,3,3,0,0,1,1.31.28,2.93,2.93,0,0,1,1.07.86,4.57,4.57,0,0,1,.7,1.47A7.19,7.19,0,0,1,120.87,17.88Zm-1.18,0a7.42,7.42,0,0,0-.18-1.77A3.53,3.53,0,0,0,119,15a1.86,1.86,0,0,0-.69-.63,1.94,1.94,0,0,0-1.63,0A1.86,1.86,0,0,0,116,15a3.76,3.76,0,0,0-.47,1.15,8,8,0,0,0-.17,1.77,7.88,7.88,0,0,0,.17,1.76,3.87,3.87,0,0,0,.47,1.15,1.75,1.75,0,0,0,.69.62,1.84,1.84,0,0,0,1.63,0,1.75,1.75,0,0,0,.69-.62,3.62,3.62,0,0,0,.47-1.15A7.27,7.27,0,0,0,119.69,17.88Z" style="fill:#bababa"/><path d="M157.35,21.59v.88h-4.93v-.88h2V15.33c0-.19,0-.38,0-.57l-1.63,1.41a.44.44,0,0,1-.17.08.38.38,0,0,1-.15,0,.21.21,0,0,1-.13-.05.27.27,0,0,1-.1-.08l-.36-.49,2.74-2.37h.93v8.33Z" style="fill:#bababa"/><path d="M194.15,21.38a.4.4,0,0,1,.29.11.36.36,0,0,1,.11.28v.7h-6.13v-.39a.54.54,0,0,1,.06-.25.54.54,0,0,1,.16-.24l2.94-3,.67-.71a5.09,5.09,0,0,0,.51-.69,3.11,3.11,0,0,0,.32-.7,2.37,2.37,0,0,0,.12-.76,1.73,1.73,0,0,0-.13-.71,1.29,1.29,0,0,0-.35-.5,1.23,1.23,0,0,0-.52-.3,2,2,0,0,0-.65-.1,1.87,1.87,0,0,0-.64.1,1.71,1.71,0,0,0-.53.29A1.57,1.57,0,0,0,190,15a2,2,0,0,0-.22.55.54.54,0,0,1-.2.3.6.6,0,0,1-.37,0l-.6-.1a3.37,3.37,0,0,1,.35-1.11,2.65,2.65,0,0,1,.65-.82,3,3,0,0,1,.9-.49,3.29,3.29,0,0,1,1.1-.17,3.51,3.51,0,0,1,1.09.17,2.62,2.62,0,0,1,.88.5,2.27,2.27,0,0,1,.58.81,2.6,2.6,0,0,1,.21,1.08,3,3,0,0,1-.15,1,3.41,3.41,0,0,1-.42.83,5.41,5.41,0,0,1-.6.78c-.23.25-.47.51-.73.76l-2.42,2.48a3.53,3.53,0,0,1,1-.16Z"/><path d="M225.66,15.77a3.36,3.36,0,0,1,.34-1.11,2.65,2.65,0,0,1,.65-.82,3,3,0,0,1,.91-.49,3.25,3.25,0,0,1,1.1-.17,3.38,3.38,0,0,1,1.07.16,2.61,2.61,0,0,1,.85.48,2.17,2.17,0,0,1,.56.74,2.68,2.68,0,0,1,.08,1.75,1.73,1.73,0,0,1-.32.6,1.9,1.9,0,0,1-.5.43,3.32,3.32,0,0,1-.66.3,2.44,2.44,0,0,1,1.35.79,2.16,2.16,0,0,1,.45,1.4A2.64,2.64,0,0,1,231.3,21a2.45,2.45,0,0,1-.66.86,3,3,0,0,1-1,.55,3.54,3.54,0,0,1-1.19.19,3.88,3.88,0,0,1-1.25-.18,2.72,2.72,0,0,1-.88-.51,2.81,2.81,0,0,1-.59-.76,6.29,6.29,0,0,1-.39-.95l.5-.2a.61.61,0,0,1,.37,0,.41.41,0,0,1,.27.21,4.13,4.13,0,0,0,.21.43,1.69,1.69,0,0,0,.34.48,1.61,1.61,0,0,0,.55.39,2,2,0,0,0,.86.16,2.17,2.17,0,0,0,.84-.15,2,2,0,0,0,.61-.41,1.68,1.68,0,0,0,.36-.56,1.66,1.66,0,0,0,.12-.61,2.15,2.15,0,0,0-.1-.68,1.1,1.1,0,0,0-.36-.53,1.73,1.73,0,0,0-.72-.35,4.2,4.2,0,0,0-1.17-.13v-.83a3.65,3.65,0,0,0,1-.12,2,2,0,0,0,.67-.34,1.22,1.22,0,0,0,.38-.5,1.76,1.76,0,0,0,.12-.66,1.67,1.67,0,0,0-.13-.69,1.23,1.23,0,0,0-.34-.49,1.69,1.69,0,0,0-.51-.29,2.27,2.27,0,0,0-.65-.09,1.91,1.91,0,0,0-.64.1,1.6,1.6,0,0,0-.53.29A1.57,1.57,0,0,0,227,15a2,2,0,0,0-.22.55.51.51,0,0,1-.21.3.56.56,0,0,1-.36,0Z" style="fill:#bababa"/><path d="M169.67,81.06a20.06,20.06,0,0,0,19.46-10.3" style="fill:none;stroke:#353535;stroke-miterlimit:10"/><polygon points="191.38 74.69 188.53 71.85 184.5 71.92 191.22 65.17 191.38 74.69" style="fill:#353535"/></svg>